<svg width="24" height="24" viewBox="0 0 24 24" fill="none" xmlns="http://www.w3.org/2000/svg">
<path d="M1 17.9992C1.15 16.2159 1.696 14.5742 2.638 13.0742C3.57933 11.5742 4.83333 10.3826 6.4 9.49922L4.55 6.29922C4.45 6.14922 4.425 5.99089 4.475 5.82422C4.525 5.65755 4.63333 5.53255 4.8 5.44922C4.93333 5.36589 5.08333 5.34922 5.25 5.39922C5.41667 5.44922 5.55 5.54922 5.65 5.69922L7.5 8.89922C8.93333 8.29922 10.4333 7.99922 12 7.99922C13.5667 7.99922 15.0667 8.29922 16.5 8.89922L18.35 5.69922C18.45 5.54922 18.5833 5.44922 18.75 5.39922C18.9167 5.34922 19.0667 5.36589 19.2 5.44922C19.3667 5.53255 19.475 5.65755 19.525 5.82422C19.575 5.99089 19.55 6.14922 19.45 6.29922L17.6 9.49922C19.1667 10.3826 20.421 11.5742 21.363 13.0742C22.3043 14.5742 22.85 16.2159 23 17.9992H1ZM7 15.2492C7.35 15.2492 7.646 15.1282 7.888 14.8862C8.12933 14.6449 8.25 14.3492 8.25 13.9992C8.25 13.6492 8.12933 13.3536 7.888 13.1122C7.646 12.8702 7.35 12.7492 7 12.7492C6.65 12.7492 6.35433 12.8702 6.113 13.1122C5.871 13.3536 5.75 13.6492 5.75 13.9992C5.75 14.3492 5.871 14.6449 6.113 14.8862C6.35433 15.1282 6.65 15.2492 7 15.2492ZM17 15.2492C17.35 15.2492 17.646 15.1282 17.888 14.8862C18.1293 14.6449 18.25 14.3492 18.25 13.9992C18.25 13.6492 18.1293 13.3536 17.888 13.1122C17.646 12.8702 17.35 12.7492 17 12.7492C16.65 12.7492 16.3543 12.8702 16.113 13.1122C15.871 13.3536 15.75 13.6492 15.75 13.9992C15.75 14.3492 15.871 14.6449 16.113 14.8862C16.3543 15.1282 16.65 15.2492 17 15.2492Z" fill="#EAEAFF" fill-opacity="0.87"/>
</svg>
