<svg width="24" height="24" viewBox="0 0 24 24" fill="none" xmlns="http://www.w3.org/2000/svg">
<path fill-rule="evenodd" clip-rule="evenodd" d="M18.6701 2H4.56518C3.42192 2 3 2.42192 3 3.56571V17.3673C3 17.4967 3.00522 17.617 3.01665 17.7284L3.02287 17.7907C3.04508 18.0186 3.06694 18.2429 3.27978 18.4954C3.30247 18.5224 3.53953 18.6988 3.53953 18.6988L3.60482 18.731L3.60483 18.731L3.60483 18.731C3.70012 18.7782 3.77992 18.8178 3.89792 18.8653L10.8434 21.7752C11.204 21.9405 11.3547 22.0049 11.6166 21.9997V21.9997H11.6176H11.6187V21.9997C11.8806 22.0049 12.0313 21.9405 12.3919 21.7752L19.3374 18.8653C19.4552 18.8178 19.535 18.7784 19.6301 18.7312L19.6301 18.7312L19.6958 18.6988C19.6958 18.6988 19.9328 18.5224 19.9555 18.4954C20.1683 18.2429 20.1902 18.0186 20.2124 17.7907L20.2186 17.7284C20.2301 17.617 20.2353 17.4967 20.2353 17.3673V3.56571C20.2353 2.42192 19.8134 2 18.6701 2ZM17.7254 15.8757L17.7222 15.9076L17.719 15.9425L17.7127 15.9744L17.7031 16.0062L17.697 16.0349L17.6874 16.0667L17.6747 16.0954L17.6619 16.1209L17.6494 16.1495L17.6335 16.175L17.6176 16.2005L17.5986 16.2259L17.5827 16.2514L17.5638 16.2736L17.5415 16.2959L17.5226 16.315L17.4972 16.3373L17.475 16.3564L17.4496 16.3755L17.4243 16.3912L17.399 16.4103L17.3703 16.4263L17.3419 16.439L17.3134 16.4549L17.2816 16.4677L17.2499 16.4804L17.2183 16.4899L17.1867 16.4995L17.158 16.509L17.1264 16.5154L17.0979 16.5218L17.0694 16.5281L17.0376 16.5345L17.0059 16.5377L16.9775 16.5409L16.9456 16.5441L16.9108 16.5473L16.8791 16.5504H16.8475H16.8127H16.7777H16.746L16.7143 16.5473H16.6796L16.6479 16.5441L16.6161 16.5409L16.5812 16.5377L16.5496 16.5313L16.5179 16.5281L16.4861 16.5218L16.4544 16.5154L16.4228 16.509L16.3911 16.5027L16.3593 16.4932L16.3308 16.4868L16.2992 16.4772L16.2675 16.4677L16.2389 16.4549L16.2073 16.4454L16.1788 16.4358L16.1471 16.4231L16.1185 16.4103L16.09 16.3976L16.0615 16.3819L16.0329 16.3692L16.0044 16.3532L15.9792 16.3373L15.9505 16.3214L15.9252 16.3055L15.8998 16.2896L15.8745 16.2705L15.8492 16.2514L15.8237 16.2323L15.7984 16.2132L15.7762 16.1941L15.7509 16.1718L15.77 16.1463L15.7921 16.124L15.8112 16.0985L15.8333 16.0731L15.8524 16.0508L15.8713 16.0254L15.8936 15.9999L15.9125 15.9776L15.9348 15.9521L15.9537 15.9298L15.976 15.9044L15.9949 15.8789L16.014 15.8566L16.0361 15.8312L16.0552 15.8057L16.0773 15.7834L16.0964 15.7579L16.1217 15.777L16.1501 15.7961L16.1756 15.8152L16.2041 15.8344L16.2295 15.8503L16.258 15.8693L16.2833 15.8853L16.312 15.898L16.3372 15.9139L16.3657 15.9267L16.3943 15.9394L16.4228 15.9521L16.4513 15.9617L16.4799 15.9744L16.5116 15.984L16.5432 15.9935L16.5717 16.0031L16.6035 16.0094L16.6352 16.0158L16.6668 16.0222L16.7016 16.0254L16.7335 16.0317H16.7651L16.7999 16.0349H16.8316H16.8696L16.9044 16.0317L16.9363 16.0254L16.9647 16.019L16.9932 16.0126L17.0187 16.0031L17.0408 15.9903L17.0662 15.9712L17.0851 15.9489L17.0979 15.9234L17.1075 15.8948L17.1106 15.863V15.8566L17.1075 15.8184L17.0947 15.7866L17.0788 15.7643L17.0567 15.7452L17.0312 15.7261L17.0059 15.7134L16.9775 15.7006L16.9456 15.6879L16.9076 15.672L16.8855 15.6656L16.8603 15.6593L16.8316 15.6497L16.8031 15.6433L16.7715 15.6338L16.7396 15.6274L16.7048 15.6179L16.6732 15.6115L16.6383 15.6019L16.6067 15.5956L16.5748 15.586L16.5432 15.5796L16.5116 15.5701L16.4829 15.5606L16.4513 15.5542L16.4228 15.5446L16.3943 15.5351L16.3657 15.5255L16.3308 15.5128L16.2992 15.5L16.2675 15.4873L16.2357 15.4746L16.2073 15.4587L16.1756 15.4428L16.1501 15.4268L16.1217 15.4109L16.0964 15.3918L16.0709 15.3759L16.0488 15.3568L16.0266 15.3345L16.0044 15.3122L15.9853 15.2899L15.9665 15.2677L15.9505 15.2454L15.9348 15.2199L15.9189 15.1913L15.9061 15.1692L15.8966 15.1437L15.8872 15.115L15.8777 15.0896L15.8713 15.0577L15.8649 15.0291L15.8617 14.9973L15.8586 14.9654L15.8554 14.9304V14.8954V14.889V14.8572L15.8586 14.8254L15.8617 14.7967L15.8649 14.7648L15.8713 14.7362L15.8777 14.7076L15.8872 14.6789L15.8936 14.6503L15.9061 14.6216L15.9189 14.5929L15.9316 14.5643L15.9473 14.5356L15.9632 14.507L15.9821 14.4815L16.0013 14.4561L16.0234 14.4306L16.0456 14.4083L16.0678 14.3828L16.0932 14.3605L16.1153 14.3446L16.1408 14.3255L16.1661 14.3064L16.1913 14.2905L16.22 14.2746L16.2485 14.2619L16.2769 14.2459L16.3056 14.2332L16.3372 14.2236L16.3688 14.2109L16.3975 14.2014L16.4228 14.195L16.4513 14.1886L16.4799 14.1823L16.5116 14.1759L16.54 14.1695L16.5717 14.1664L16.6035 14.1632L16.6352 14.16L16.6668 14.1568H16.6984H16.7335H16.7683H16.8031L16.838 14.16L16.8728 14.1632H16.9044L16.9394 14.1664L16.9711 14.1727L17.0059 14.1759L17.0376 14.1823L17.0662 14.1886L17.0979 14.195L17.1295 14.2014L17.158 14.2077L17.1898 14.2173L17.2183 14.2268L17.2468 14.2332L17.2786 14.2459L17.3071 14.2555L17.3355 14.2682L17.364 14.281L17.3958 14.2937L17.4243 14.3096L17.4496 14.3224L17.4782 14.3383L17.5067 14.3542L17.532 14.3701L17.5606 14.3892L17.5859 14.4051L17.6114 14.4242L17.6367 14.4433L17.6619 14.4624L17.643 14.4879L17.6271 14.5134L17.6082 14.5388L17.5891 14.5643L17.5702 14.5929L17.5543 14.6184L17.5351 14.6439L17.5162 14.6694L17.5003 14.6948L17.4814 14.7203L17.4623 14.7458L17.4464 14.7712L17.4275 14.7999L17.4083 14.8254L17.3895 14.8508L17.3735 14.8763L17.3546 14.9017L17.3292 14.8827L17.3007 14.8667L17.2754 14.8508L17.2499 14.8317L17.2215 14.819L17.196 14.8031L17.1676 14.7903L17.1423 14.7776L17.1136 14.7648L17.0883 14.7521L17.0599 14.7426L17.0344 14.7298L16.9996 14.7203L16.9679 14.7107L16.9363 14.7012L16.9044 14.6948L16.8728 14.6885L16.8412 14.6821L16.8095 14.6789L16.7777 14.6757L16.7492 14.6725H16.7175H16.6796L16.6447 14.6789L16.6129 14.6853L16.5844 14.6916L16.5591 14.7044L16.5368 14.7171L16.5084 14.7426L16.4893 14.7712L16.4768 14.7999L16.4735 14.8317V14.8381L16.4768 14.8795L16.4925 14.9145L16.5052 14.9336L16.5273 14.9559L16.5559 14.9718L16.5812 14.9877L16.6129 15.0005L16.6479 15.0132L16.6859 15.0259L16.7112 15.0323L16.7365 15.0418L16.7651 15.0482L16.7936 15.0577L16.8252 15.0641L16.8603 15.0737L16.8951 15.0832L16.9299 15.0928L16.9647 15.0991L16.9964 15.1087L17.0312 15.1182L17.0631 15.1246L17.0947 15.1341L17.1264 15.1437L17.1548 15.1532L17.1867 15.1628L17.2151 15.1724L17.2436 15.1819L17.2786 15.1944L17.3102 15.2104L17.3419 15.2231L17.3735 15.239L17.4022 15.2549L17.4307 15.2709L17.4559 15.2868L17.4814 15.3059L17.5067 15.3218L17.532 15.3441L17.5574 15.3663L17.5795 15.3918L17.6018 15.4141L17.6207 15.4396L17.6398 15.4682L17.6556 15.4937L17.6715 15.5224L17.6842 15.5478L17.6938 15.5764L17.7031 15.6051L17.7095 15.6338L17.7159 15.6656L17.7222 15.6975L17.7254 15.7293L17.7286 15.7643V15.7993V15.8057V15.8407L17.7254 15.8757ZM15.5027 16.5123H15.4709H15.4393H15.4076H15.376H15.3442H15.3125H15.2809H15.2492H15.2142H15.1826H15.1509H15.1193H15.0874H15.0558H15.0241H14.9925H14.9606H14.929H14.8973H14.8657H14.834H14.8022H14.7706H14.7389H14.7073H14.6754H14.6438H14.6121H14.5773H14.5455H14.5138H14.4822H14.4505H14.4187H14.387H14.3554H14.3237H14.2919H14.2603H14.2286H14.197H14.1651H14.1335H14.1018H14.0702H14.0384H14.0067H13.9719H13.9402H13.9086H13.8767H13.8451H13.8134H13.7818H13.75H13.7183H13.6867V16.4804V16.4486V16.4167V16.3851V16.3532V16.3214V16.2896V16.2578V16.2259V16.1941V16.1622V16.1304V16.0985V16.0667V16.0349V16.0031V15.9712V15.9394V15.9107V15.8789V15.8471V15.8152V15.7834V15.7515V15.7197V15.6879V15.656V15.6242V15.5924V15.5606V15.5287V15.4969V15.4651V15.4332V15.4014V15.3695V15.3377V15.3059V15.274V15.2422V15.2104V15.1787V15.1469V15.115V15.0832V15.0514V15.0196V14.9877V14.9559V14.924V14.8922V14.8604V14.8285V14.7967V14.768V14.7362V14.7044V14.6725V14.6407V14.6089V14.577V14.5452V14.5134V14.4815V14.4497V14.4178V14.386V14.3542V14.3224V14.2905V14.2587V14.2268V14.195H13.7183H13.75H13.7818H13.8134H13.8451H13.8767H13.9086H13.9402H13.9719H14.0035H14.0354H14.067H14.0986H14.1303H14.1589H14.1906H14.2222H14.2539H14.2857H14.3174H14.349H14.3807H14.4125H14.4441H14.4758H14.5074H14.5393H14.5709H14.6026H14.6342H14.6661H14.6977H14.7293H14.761H14.7927H14.8245H14.8561H14.8878H14.9194H14.9513H14.9829H15.0146H15.0462H15.0749H15.1065H15.1382H15.1698H15.2017H15.2333H15.2649H15.2966H15.3284H15.3601H15.3917H15.4234H15.4552H15.4869H15.5185V14.2268V14.2555V14.2873V14.3192V14.351V14.3796V14.4115V14.4433V14.472V14.5038V14.5356V14.5643V14.5961V14.628V14.6598V14.6885V14.7203H15.4869H15.4552H15.4234H15.3917H15.3601H15.3284H15.2998H15.2681H15.2365H15.2048H15.173H15.1414H15.1097H15.078H15.0462H15.0146H14.9829H14.9513H14.9194H14.891H14.8593H14.8277H14.7958H14.7642H14.7325H14.7009H14.6691H14.6374H14.6058H14.5741H14.5423H14.5106H14.4822H14.4505H14.4187H14.387H14.3554H14.3237H14.2919V14.7521V14.7839V14.8158V14.8476V14.8795V14.9081V14.9399V14.9718V15.0036V15.0355V15.0673V15.0991H14.3237H14.3554H14.387H14.4187H14.4505H14.4822H14.5138H14.5455H14.5741H14.6058H14.6374H14.6691H14.7009H14.7325H14.7642H14.7958H14.8277H14.8593H14.891H14.9226H14.9544H14.9861H15.0178H15.0494H15.0812H15.1129H15.1414H15.173H15.2048H15.2365H15.2681H15.2998H15.3316H15.3633H15.3949V15.1309V15.1596V15.1913V15.2231V15.2517V15.2836V15.3154V15.3441V15.3759V15.4077V15.4396V15.4682V15.5V15.5319V15.5606V15.5924H15.3633H15.3316H15.2998H15.2681H15.2365H15.2048H15.173H15.1414H15.1129H15.0812H15.0494H15.0178H14.9861H14.9544H14.9226H14.891H14.8593H14.8277H14.7958H14.7642H14.7325H14.7009H14.6691H14.6374H14.6058H14.5741H14.5455H14.5138H14.4822H14.4505H14.4187H14.387H14.3554H14.3237H14.2919V15.6242V15.6593V15.6911V15.7229V15.7579V15.7898V15.8216V15.8566V15.8884V15.9203V15.9553V15.9871H14.3237H14.3554H14.387H14.4187H14.4505H14.4822H14.5138H14.5455H14.5773H14.6121H14.6438H14.6754H14.7073H14.7389H14.7706H14.8022H14.834H14.8657H14.8973H14.929H14.9606H14.9925H15.0241H15.0558H15.0874H15.1193H15.1509H15.1826H15.2142H15.2492H15.2809H15.3125H15.3442H15.376H15.4076H15.4393H15.4709H15.5027H15.5344V16.019V16.0476V16.0795V16.1113V16.1431V16.1718V16.2036V16.2354V16.2641V16.2959V16.3278V16.3564V16.3881V16.4199V16.4517V16.4804V16.5123H15.5027ZM13.187 16.5123H13.1554H13.1237H13.0887H13.0571H13.0254H12.9938H12.9619H12.9303H12.8955H12.8638H12.8322H12.8003H12.7687H12.7371H12.7022H12.6704H12.6387H12.6071V16.4804V16.4486V16.4167V16.3849V16.3529V16.321V16.2892V16.2573V16.2255V16.1937V16.1619V16.1299V16.098V16.0662V16.0343V16.0025V15.9705V15.9386V15.9068V15.875V15.8431V15.8113V15.7793V15.7475V15.7156V15.6838V15.6519V15.6201V15.5881V15.5562V15.5244V15.4926V15.4608V15.4289V15.3969V15.3651V15.3332V15.3014V15.2695V15.2375V15.2057V15.1738V15.142L12.5912 15.1675L12.5723 15.1963L12.5563 15.2218L12.5374 15.2473L12.5215 15.2759L12.5024 15.3014L12.4867 15.3269L12.4707 15.3557L12.4519 15.3811L12.4359 15.4066L12.4168 15.4321L12.4011 15.4609L12.382 15.4864L12.3663 15.5119L12.3503 15.5405L12.3312 15.5661L12.3155 15.5916L12.2964 15.6203L12.2807 15.6458L12.2616 15.6712L12.2459 15.7001L12.2299 15.7255L12.2108 15.751L12.1951 15.7797L12.176 15.8053L12.1603 15.8308L12.1412 15.8563L12.1252 15.8849L12.1095 15.9105L12.0904 15.936L12.0747 15.9647L12.0556 15.9901L12.0397 16.0156L12.0208 16.0445L12.0049 16.0699H11.9923L11.9732 16.0413L11.9573 16.0156L11.9384 15.9869L11.9224 15.9615L11.9035 15.9329L11.8876 15.9072L11.8687 15.8785L11.8528 15.853L11.8337 15.8244L11.8179 15.7989L11.7988 15.7701L11.7831 15.7446L11.764 15.716L11.7481 15.6905L11.7292 15.6617L11.7133 15.6362L11.6944 15.6076L11.6753 15.5821L11.6594 15.5533L11.6404 15.5278L11.6245 15.4991L11.6056 15.4737L11.5897 15.4448L11.5708 15.4194L11.5549 15.3907L11.5357 15.3652L11.52 15.3366L11.5009 15.3109L11.4852 15.2823L11.4661 15.2568L11.4502 15.2281L11.4313 15.2027L11.4153 15.1738L11.3964 15.1484V15.1802V15.212V15.2439V15.2759V15.3077V15.3396V15.3714V15.4033V15.4353V15.4671V15.4958V15.5276V15.5594V15.5913V15.6233V15.6551V15.687V15.7188V15.7506V15.7825V15.8145V15.8463V15.8782V15.91V15.9418V15.9737V16.0057V16.0375V16.0694V16.1012V16.133V16.165V16.1937V16.2255V16.2573V16.2892V16.321V16.3529V16.3849V16.4167V16.4486V16.4804V16.5123H11.3648H11.333H11.3013H11.2696H11.238H11.2062H11.1745H11.1429H11.1112H11.0794H11.0477H11.0161H10.9844H10.9526H10.921H10.8893H10.8576H10.8258H10.7942V16.4804V16.4486V16.4167V16.3851V16.3532V16.3214V16.2896V16.2578V16.2259V16.1941V16.1622V16.1304V16.0985V16.0667V16.0349V16.0031V15.9712V15.9394V15.9107V15.8789V15.8471V15.8152V15.7834V15.7515V15.7197V15.6879V15.656V15.6242V15.5924V15.5606V15.5287V15.4969V15.4651V15.4332V15.4014V15.3695V15.3377V15.3059V15.274V15.2422V15.2104V15.1787V15.1469V15.115V15.0832V15.0514V15.0196V14.9877V14.9559V14.924V14.8922V14.8604V14.8285V14.7967V14.768V14.7362V14.7044V14.6725V14.6407V14.6089V14.577V14.5452V14.5134V14.4815V14.4497V14.4178V14.386V14.3542V14.3224V14.2905V14.2587V14.2268V14.195H10.8258H10.8576H10.8861H10.9177H10.9494H10.9812H11.0097H11.0414H11.0732H11.1048H11.1333H11.165H11.1968H11.2285H11.2569H11.2885H11.3204H11.3521H11.3805H11.4121H11.444L11.4597 14.2205L11.4756 14.2491L11.4945 14.2744L11.5105 14.303L11.5264 14.3285L11.5421 14.3572L11.558 14.3824L11.577 14.4111L11.5928 14.4366L11.6088 14.4621L11.6245 14.4905L11.6404 14.516L11.6594 14.5446L11.6753 14.5701L11.6912 14.5986L11.7069 14.624L11.726 14.6495L11.742 14.678L11.7576 14.7034L11.7736 14.7321L11.7893 14.7576L11.8084 14.786L11.8243 14.8115L11.84 14.8401L11.856 14.8654L11.8717 14.8909L11.8908 14.9195L11.9067 14.945L11.9224 14.9737L11.9384 14.999L11.9541 15.0276L11.9732 15.0531L11.9891 15.0815L12.0049 15.107L12.0208 15.0815L12.0367 15.0531L12.0556 15.0276L12.0715 14.999L12.0872 14.9737L12.1032 14.945L12.1221 14.9195L12.138 14.8909L12.1539 14.8654L12.1696 14.8401L12.1887 14.8115L12.2045 14.786L12.2204 14.7576L12.2363 14.7321L12.2552 14.7034L12.2711 14.678L12.2871 14.6495L12.3027 14.624L12.3187 14.5986L12.3376 14.5701L12.3535 14.5446L12.3694 14.516L12.3852 14.4905L12.4043 14.4621L12.42 14.4366L12.4359 14.4111L12.4519 14.3824L12.4707 14.3572L12.4867 14.3285L12.5024 14.303L12.5183 14.2744L12.5374 14.2491L12.5532 14.2205L12.5691 14.195H12.6007H12.6324H12.661H12.6927H12.7243H12.756H12.7846H12.8163H12.8479H12.8796H12.9082H12.9399H12.9715H13.0032H13.0318H13.0635H13.0951H13.1267H13.1554H13.187H13.2187V14.2268V14.2587V14.2905V14.3224V14.3542V14.386V14.4178V14.4497V14.4815V14.5134V14.5452V14.577V14.6089V14.6407V14.6725V14.7044V14.7362V14.768V14.7967V14.8285V14.8604V14.8922V14.924V14.9559V14.9877V15.0196V15.0514V15.0832V15.115V15.1469V15.1787V15.2104V15.2422V15.274V15.3059V15.3377V15.3695V15.4014V15.4332V15.4651V15.4969V15.5287V15.5606V15.5924V15.6242V15.656V15.6879V15.7197V15.7515V15.7834V15.8152V15.8471V15.8789V15.9107V15.9394V15.9712V16.0031V16.0349V16.0667V16.0985V16.1304V16.1622V16.1941V16.2259V16.2578V16.2896V16.3214V16.3532V16.3851V16.4167V16.4486V16.4804V16.5123H13.187ZM9.50973 15.5574L9.50018 15.5285L9.48764 15.4967L9.4749 15.468L9.46534 15.4392L9.45281 15.4105L9.4401 15.3787L9.43051 15.3499L9.41776 15.3212L9.40526 15.2926L9.39567 15.2638L9.38293 15.2319L9.37359 15.2032L9.36084 15.1744L9.34809 15.1458L9.33858 15.1171L9.32601 15.0851L9.31329 15.0564L9.30374 15.0278L9.29099 14.999L9.27846 14.9671L9.26891 14.9383L9.25616 14.9096L9.24362 14.9383L9.23411 14.9671L9.22136 14.999L9.20861 15.0278L9.19924 15.0564L9.18653 15.0851L9.17378 15.1171L9.16124 15.1458L9.15165 15.1744L9.13894 15.2032L9.12619 15.2319L9.11682 15.2638L9.10411 15.2926L9.09136 15.3212L9.08184 15.3499L9.06927 15.3787L9.05653 15.4105L9.04381 15.4392L9.03447 15.468L9.02173 15.4967L9.00898 15.5285L8.99943 15.5574L8.98689 15.586H9.01853H9.05017H9.08184H9.11366H9.1453H9.17694H9.20861H9.24046H9.26891H9.30055H9.3324H9.36404H9.39567H9.42735H9.45899H9.4908H9.52244L9.50973 15.5574ZM10.5051 16.5123H10.4732H10.4447H10.4131H10.3813H10.3496H10.318H10.2895H10.2577H10.226H10.1944H10.1627H10.1309H10.1024H10.0708H10.0391H10.0073H9.97565H9.94717H9.91553H9.88371L9.87114 16.4836L9.86159 16.4549L9.84888 16.4263L9.83613 16.3944L9.82676 16.366L9.81404 16.3373L9.8013 16.3087L9.79192 16.28L9.77921 16.2514L9.76646 16.2227L9.75695 16.1941L9.74438 16.1622L9.73163 16.1336L9.72208 16.1049L9.70933 16.0763H9.67769H9.64605H9.61441H9.58277H9.55412H9.52244H9.4908H9.45899H9.42735H9.39567H9.36404H9.3324H9.30055H9.26891H9.24046H9.20861H9.17694H9.1453H9.11366H9.08184H9.05017H9.01853H8.98689H8.95525H8.92656H8.89496H8.86328H8.83143H8.79979L8.78726 16.1049L8.77771 16.1336L8.76496 16.1622L8.75225 16.1941L8.74287 16.2227L8.73016 16.2514L8.71741 16.28L8.70786 16.3087L8.69532 16.3373L8.68258 16.366L8.67303 16.3944L8.66046 16.4263L8.64774 16.4549L8.63819 16.4836L8.62544 16.5123H8.5938H8.56217H8.53053H8.49867H8.46704H8.4322H8.40056H8.36889H8.33707H8.30543H8.27379H8.24212H8.21027H8.17867H8.14703H8.11219H8.08034H8.0487H8.01703H7.98539L7.99792 16.4836L8.01067 16.4549L8.02338 16.4263L8.03595 16.3944L8.04551 16.366L8.05825 16.3373L8.07096 16.3087L8.0835 16.28L8.09625 16.2514L8.109 16.2195L8.12153 16.1909L8.13428 16.1622L8.14379 16.1336L8.15654 16.1049L8.16908 16.0763L8.18183 16.0445L8.19454 16.0158L8.20711 15.9871L8.21986 15.9585L8.23257 15.9298L8.24212 15.9012L8.25465 15.8693L8.2674 15.8407L8.28015 15.8121L8.29269 15.7834L8.30543 15.7547L8.31818 15.7261L8.33072 15.6942L8.34027 15.6656L8.35302 15.637L8.36573 15.6083L8.3783 15.5796L8.39101 15.551L8.40372 15.5192L8.41629 15.4905L8.42901 15.4619L8.43856 15.4332L8.4513 15.4046L8.46384 15.3759L8.47659 15.3441L8.48934 15.3154L8.50187 15.2868L8.51458 15.2581L8.52733 15.2295L8.53688 15.2008L8.54945 15.1724L8.56217 15.1405L8.57488 15.1119L8.58745 15.0832L8.60016 15.0545L8.61291 15.0259L8.62544 14.9973L8.63499 14.9654L8.64774 14.9368L8.66046 14.9081L8.67303 14.8795L8.68577 14.8508L8.69849 14.8222L8.71106 14.7903L8.72377 14.7617L8.73332 14.733L8.74603 14.7044L8.7586 14.6757L8.77131 14.6471L8.78406 14.6152L8.7966 14.5866L8.80935 14.5579L8.82209 14.5293L8.83143 14.5007L8.84418 14.472L8.85693 14.4401L8.86968 14.4115L8.88221 14.3828L8.89496 14.3542L8.90767 14.3255L8.92021 14.2969L8.92979 14.2651L8.9425 14.2364L8.95525 14.2077L8.96779 14.1791H8.99943H9.02808H9.05972H9.09136H9.12321H9.15165H9.18329H9.21497H9.24682H9.2753H9.3069H9.33858H9.37039H9.39887H9.43051H9.46215H9.494H9.52244H9.55412L9.56683 14.2077L9.57958 14.2364L9.59215 14.2651L9.60486 14.2969L9.61441 14.3255L9.62695 14.3542L9.63969 14.3828L9.65241 14.4115L9.66515 14.4401L9.67769 14.472L9.69044 14.5007L9.70318 14.5293L9.71252 14.5579L9.72527 14.5866L9.73802 14.6152L9.75077 14.6471L9.7633 14.6757L9.77601 14.7044L9.78876 14.733L9.8013 14.7617L9.81085 14.7903L9.82356 14.8222L9.83613 14.8508L9.84888 14.8795L9.86159 14.9081L9.87434 14.9368L9.88687 14.9654L9.89959 14.9973L9.90917 15.0259L9.92171 15.0545L9.93442 15.0832L9.94717 15.1119L9.95992 15.1405L9.97245 15.1724L9.9852 15.2008L9.99791 15.2295L10.0073 15.2581L10.02 15.2868L10.0327 15.3154L10.0453 15.3441L10.058 15.3759L10.0708 15.4046L10.0835 15.4332L10.0961 15.4619L10.1056 15.4905L10.1183 15.5192L10.1309 15.551L10.1436 15.5796L10.1564 15.6083L10.1691 15.637L10.1816 15.6656L10.1944 15.6942L10.2039 15.7261L10.2165 15.7547L10.2292 15.7834L10.2419 15.8121L10.2545 15.8407L10.2672 15.8693L10.28 15.9012L10.2927 15.9298L10.302 15.9585L10.3148 15.9871L10.3275 16.0158L10.3401 16.0445L10.3528 16.0763L10.3655 16.1049L10.3783 16.1336L10.3908 16.1622L10.4004 16.1909L10.4131 16.2195L10.4257 16.2514L10.4384 16.28L10.4511 16.3087L10.4637 16.3373L10.4764 16.366L10.4891 16.3944L10.4987 16.4263L10.5112 16.4549L10.5239 16.4836L10.5367 16.5123H10.5051ZM7.72848 16.2163L7.70302 16.2354L7.6809 16.2514L7.65544 16.2705L7.63015 16.2864L7.60487 16.3055L7.57941 16.3214L7.55413 16.3373L7.52547 16.3532L7.49699 16.3692L7.46851 16.3851L7.43989 16.3976L7.41142 16.4135L7.37978 16.4263L7.35133 16.439L7.31948 16.4517L7.29104 16.4645L7.26253 16.474L7.2339 16.4836L7.20543 16.4932L7.17379 16.5027L7.14535 16.5123L7.11349 16.5186L7.08501 16.525L7.05338 16.5313L7.02156 16.5377L6.98989 16.5409L6.95505 16.5441L6.92341 16.5473L6.88858 16.5504L6.85673 16.5536L6.82193 16.5568H6.78709H6.75222H6.71742H6.68557L6.65393 16.5536L6.6191 16.5504L6.58746 16.5473L6.55582 16.5441L6.52397 16.5409L6.49233 16.5345L6.46065 16.5281L6.43221 16.5218L6.4004 16.5154L6.37192 16.5059L6.34028 16.4995L6.31162 16.4899L6.28314 16.4772L6.25467 16.4677L6.22306 16.4549L6.19441 16.4422L6.16593 16.4295L6.13749 16.4167L6.10879 16.4008L6.08355 16.3851L6.05507 16.3692L6.02961 16.3532L6.00433 16.3373L5.97887 16.3182L5.95358 16.2991L5.92827 16.28L5.906 16.2609L5.88391 16.2418L5.86161 16.2195L5.83953 16.2005L5.81723 16.1782L5.79514 16.1559L5.77604 16.1336L5.75711 16.1081L5.73801 16.0858L5.7221 16.0604L5.70317 16.0349L5.6873 16.0094L5.67153 15.984L5.65562 15.9553L5.63972 15.9298L5.62718 15.9012L5.61443 15.8725L5.60172 15.8439L5.58915 15.8152L5.5796 15.7898L5.56685 15.7611L5.56049 15.7324L5.55112 15.7038L5.54476 15.672L5.53521 15.6433L5.52886 15.6115L5.52566 15.5828L5.51927 15.551L5.51614 15.5224L5.51291 15.4905L5.50993 15.4587L5.50677 15.4268V15.3918V15.36V15.3536V15.3218L5.50993 15.2868V15.2549L5.51291 15.2231L5.51614 15.1881L5.5225 15.1564L5.52566 15.1246L5.53202 15.0959L5.54157 15.0641L5.54796 15.0323L5.5573 15.0036L5.56685 14.9718L5.5764 14.9431L5.58915 14.9113L5.60172 14.8827L5.61443 14.854L5.62718 14.8254L5.63972 14.7967L5.65562 14.768L5.67153 14.7426L5.6873 14.7171L5.70317 14.6916L5.71912 14.6662L5.73801 14.6407L5.75711 14.6152L5.77604 14.5898L5.79514 14.5675L5.81723 14.5452L5.83633 14.5229L5.85845 14.5007L5.88072 14.4783L5.9028 14.4593L5.92827 14.437L5.95039 14.4178L5.97567 14.3987L6.00113 14.3828L6.02641 14.3637L6.05191 14.3478L6.07716 14.3319L6.10563 14.316L6.13429 14.3001L6.16273 14.2842L6.19121 14.2714L6.21983 14.2587L6.25151 14.2428L6.27679 14.2332L6.30843 14.2236L6.33712 14.2109L6.36556 14.2045L6.394 14.195L6.42582 14.1886L6.4543 14.1791L6.48594 14.1727L6.51761 14.1695L6.54943 14.1632L6.5811 14.16L6.61271 14.1568L6.64438 14.1536L6.67623 14.1504H6.71107H6.74271H6.7775H6.81234L6.84739 14.1536L6.88222 14.1568H6.91386L6.9455 14.16L6.98033 14.1664L7.00899 14.1695L7.04063 14.1759L7.0723 14.1823L7.10092 14.1886L7.12937 14.195L7.15788 14.2014L7.18654 14.2109L7.21498 14.2173L7.24026 14.2268L7.26892 14.2364L7.2974 14.2491L7.32584 14.2619L7.35449 14.2746L7.38297 14.2905L7.41142 14.3033L7.43691 14.3192L7.46535 14.3351L7.49064 14.351L7.51929 14.3669L7.54458 14.386L7.56986 14.4019L7.59532 14.421L7.6206 14.4401L7.64606 14.4624L7.67134 14.4815L7.65224 14.507L7.63015 14.5293L7.61105 14.5547L7.58896 14.5802L7.56986 14.6057L7.55093 14.628L7.52863 14.6534L7.50974 14.6789L7.49064 14.7012L7.46851 14.7267L7.44945 14.7521L7.42732 14.7776L7.40822 14.7999L7.38933 14.8254L7.36706 14.8508L7.3481 14.8763L7.32584 14.8986L7.30691 14.924L7.28145 14.9049L7.25617 14.8827L7.23071 14.8667L7.20543 14.8476L7.18014 14.8317L7.15468 14.8158L7.12937 14.7999L7.10092 14.7839L7.07546 14.7712L7.05018 14.7585L7.02472 14.7489L6.99624 14.7394L6.9678 14.7298L6.93914 14.7235L6.9075 14.7171L6.87587 14.7107L6.84419 14.7076L6.80936 14.7044L6.77434 14.7012H6.73951H6.70787L6.67623 14.7044L6.64758 14.7076L6.61594 14.7139L6.58746 14.7203L6.5588 14.7298L6.53036 14.7394L6.50188 14.7521L6.4734 14.7648L6.44794 14.7808L6.4227 14.7967L6.3972 14.8126L6.37511 14.8317L6.35281 14.8508L6.33073 14.8699L6.31162 14.8922L6.28954 14.9145L6.27043 14.9399L6.25467 14.9622L6.23876 14.9877L6.22306 15.0164L6.20712 15.0418L6.19441 15.0705L6.18485 15.0991L6.17228 15.1278L6.16273 15.1596L6.15638 15.1913L6.15002 15.2199L6.14363 15.2549L6.14047 15.2868L6.13749 15.3186V15.3536V15.36V15.3918L6.14047 15.4236L6.14363 15.4523L6.14682 15.4842L6.15318 15.5128L6.15957 15.5415L6.16593 15.5701L6.17548 15.5987L6.18485 15.6242L6.1976 15.656L6.21031 15.6847L6.22605 15.7134L6.24195 15.7388L6.25786 15.7643L6.27679 15.7898L6.29589 15.8121L6.31798 15.8344L6.33712 15.8566L6.35917 15.8757L6.38467 15.8948L6.40995 15.9139L6.4352 15.9298L6.46065 15.9457L6.48917 15.9585L6.51761 15.9712L6.54623 15.984L6.57791 15.9935L6.60955 16.0031L6.6414 16.0094L6.67304 16.0158L6.70468 16.019L6.73951 16.0222H6.77434H6.81234L6.84739 16.019L6.88222 16.0158L6.91386 16.0126L6.9455 16.0062L6.97735 15.9999L7.00899 15.9903L7.03743 15.984L7.06595 15.9712L7.09141 15.9585L7.11985 15.9457L7.14211 15.933L7.16743 15.9171V15.8853V15.8535V15.8216V15.7898V15.7547V15.7229V15.6911V15.6593V15.6274H7.13576H7.10714H7.07546H7.04382H7.01219H6.98353H6.95186H6.92022H6.88858H6.85996H6.82828H6.79664H6.76497H6.73635H6.70468V15.5956V15.5669V15.5351V15.5033V15.4714V15.4428V15.4109V15.3791V15.3473V15.3186V15.2868V15.2549V15.2231V15.1944V15.1628H6.73635H6.76817H6.79984H6.83144H6.86312H6.89476H6.92661H6.95825H6.98989H7.02156H7.05338H7.08501H7.11665H7.14829H7.18014H7.21182H7.24346H7.2751H7.30691H7.33859H7.37023H7.40186H7.43368H7.46535H7.49699H7.52863H7.56048H7.59212H7.6238H7.65544H7.68725H7.71889H7.75057V15.1944V15.2263V15.2581V15.2868V15.3186V15.3504V15.3822V15.4141V15.4459V15.4746V15.5064V15.5383V15.5701V15.6019V15.6338V15.6656V15.6942V15.7261V15.7579V15.7898V15.8216V15.8535V15.8853V15.9139V15.9457V15.9776V16.0094V16.0413V16.0731V16.1018V16.1336V16.1654V16.1973L7.72848 16.2163ZM8.08274 8.95194H6.70914V11.2635H8.15916V12.3261H5.54269V4.6578H8.13743V5.72031H6.70914V7.88943H8.08274V8.95194ZM16.5479 9.18213V10.913C16.5479 11.2198 16.4061 11.3621 16.1119 11.3621H15.8938C15.5885 11.3621 15.4468 11.2198 15.4468 10.913V6.07088C15.4468 5.76415 15.5885 5.62183 15.8938 5.62183H16.09C16.3844 5.62183 16.5262 5.76415 16.5262 6.07088V7.57182H17.6707V6.00515C17.6707 5.05219 17.2129 4.59206 16.2646 4.59206H15.6975C14.7492 4.59206 14.2803 5.06305 14.2803 6.01619V10.9677C14.2803 11.9209 14.7492 12.3918 15.6975 12.3918H16.2754C17.2239 12.3918 17.6926 11.9209 17.6926 10.9677V9.18213H16.5479ZM13.6638 12.3261H12.4972V4.65776H13.6638V12.3261ZM10.8045 8.06467C10.8045 8.37143 10.6629 8.51393 10.3685 8.51393H9.88878V5.68753H10.3685C10.6629 5.68753 10.8045 5.82989 10.8045 6.13658V8.06467ZM10.5538 4.65776H8.7223V12.3261H9.88878V9.54349H10.5538C11.5022 9.54349 11.971 9.07253 11.971 8.11956V6.0819C11.971 5.12876 11.5022 4.65776 10.5538 4.65776ZM14.9722 19.2598H8.29457L11.5638 20.3838L14.9722 19.2598Z" fill="#EAEAFF" fill-opacity="0.87"/>
</svg>
