<svg width="24" height="24" viewBox="0 0 24 24" fill="none" xmlns="http://www.w3.org/2000/svg">
<path d="M21.6 4.6625C21.4125 4.16875 20.9625 3.475 20.325 2.98125C19.95 2.7 19.525 2.425 18.925 2.25C18.275 2.0625 17.475 2 16.5 2H7.5C6.51875 2 5.725 2.0625 5.08125 2.25625C4.48125 2.4375 4.0375 2.70625 3.675 2.9875C3.0375 3.475 2.5875 4.175 2.39375 4.66875C2.00625 5.6625 2 6.7875 2 7.5V16.5C2 17.2125 2.00625 18.3375 2.39375 19.3375C2.5875 19.8312 3.0375 20.525 3.675 21.0187C4.04375 21.3 4.48125 21.575 5.08125 21.75C5.725 21.9375 6.51875 22 7.5 22H16.5C17.4812 22 18.275 21.9375 18.9188 21.7437C19.5188 21.5625 19.9625 21.2938 20.325 21.0125C20.9625 20.525 21.4125 19.825 21.6063 19.3312C22 18.3375 22 17.2062 22 16.4937V7.49375C22 6.78125 21.9938 5.65625 21.6063 4.65625L21.6 4.6625ZM5.9625 15.75H5.21875V11.3062H5.9625V15.75ZM5.59375 10.5562C5.34375 10.5562 5.13125 10.35 5.13125 10.0938C5.13125 9.8375 5.3375 9.63125 5.59375 9.63125C5.85 9.63125 6.0625 9.8375 6.0625 10.0938C6.05625 10.35 5.85 10.5562 5.59375 10.5562ZM10.0625 15.8625C8.1 15.8625 6.8625 14.4625 6.8625 12.2312C6.8625 10 8.1 8.59375 10.0625 8.59375C12.025 8.59375 13.2625 10 13.2625 12.2312C13.2625 14.4625 12.025 15.8625 10.0625 15.8625ZM16.5375 15.8625C15.0625 15.8625 14.025 15.05 13.9563 13.8375H14.625C14.7 14.6812 15.4938 15.2563 16.6 15.2563C17.6563 15.2563 18.4125 14.6812 18.4125 13.8875C18.4125 13.2312 17.9563 12.8375 16.9125 12.575L16.0375 12.35C14.7313 12.0188 14.15 11.4688 14.15 10.5375C14.15 9.4 15.175 8.5875 16.5625 8.5875C17.9375 8.5875 18.9375 9.4 18.9813 10.5188H18.3125C18.25 9.725 17.5438 9.19375 16.5438 9.19375C15.5688 9.19375 14.8438 9.7375 14.8438 10.5125C14.8438 11.1187 15.2813 11.475 16.3188 11.7375L17.0812 11.9312C18.5 12.2875 19.0938 12.8313 19.0938 13.8125C19.0938 15.05 18.1 15.8625 16.5375 15.8625ZM12.5813 12.2312C12.5813 14.075 11.6063 15.2437 10.0625 15.2437C8.51875 15.2437 7.55 14.075 7.55 12.2312C7.55 10.3812 8.51875 9.2125 10.0625 9.2125C11.6063 9.2125 12.5813 10.3812 12.5813 12.2312Z" fill="#EAEAFF" fill-opacity="0.87"/>
</svg>
