<svg width="24" height="24" viewBox="0 0 24 24" fill="none" xmlns="http://www.w3.org/2000/svg">
<path d="M10.5001 13.4988V18.3363C10.4999 18.4472 10.4755 18.5566 10.4286 18.657C10.3816 18.7575 10.3132 18.8464 10.2282 18.9175C10.0941 19.029 9.92449 19.0889 9.75009 19.0863H9.61884L3.61884 17.9988C3.44343 17.9676 3.28484 17.8751 3.17147 17.7376C3.0581 17.6002 2.99734 17.4269 3.00009 17.2488V13.4988C3.00009 13.2999 3.07911 13.1091 3.21976 12.9685C3.36041 12.8278 3.55118 12.7488 3.75009 12.7488H9.75009C9.949 12.7488 10.1398 12.8278 10.2804 12.9685C10.4211 13.1091 10.5001 13.2999 10.5001 13.4988ZM10.2282 5.08005C10.1443 5.01088 10.0463 4.96081 9.94107 4.93329C9.83584 4.90577 9.72589 4.90146 9.61884 4.92067L3.61884 6.00817C3.44503 6.03906 3.2877 6.13027 3.17452 6.26574C3.06134 6.40122 2.99957 6.57227 3.00009 6.7488V10.4988C3.00009 10.6977 3.07911 10.8885 3.21976 11.0291C3.36041 11.1698 3.55118 11.2488 3.75009 11.2488H9.75009C9.949 11.2488 10.1398 11.1698 10.2804 11.0291C10.4211 10.8885 10.5001 10.6977 10.5001 10.4988V5.6613C10.4999 5.55044 10.4755 5.44096 10.4286 5.34054C10.3816 5.24013 10.3132 5.15121 10.2282 5.08005ZM20.7282 3.17692C20.6461 3.1044 20.5486 3.05151 20.443 3.02228C20.3374 2.99304 20.2266 2.98822 20.1188 3.00817L12.6188 4.37692C12.4466 4.40752 12.2905 4.49736 12.1775 4.6309C12.0645 4.76443 12.0018 4.93326 12.0001 5.10817V10.4988C12.0001 10.6977 12.0791 10.8885 12.2198 11.0291C12.3604 11.1698 12.5512 11.2488 12.7501 11.2488H20.2501C20.449 11.2488 20.6398 11.1698 20.7804 11.0291C20.9211 10.8885 21.0001 10.6977 21.0001 10.4988V3.7488C20.9999 3.6393 20.9754 3.53122 20.9283 3.43234C20.8813 3.33345 20.813 3.24622 20.7282 3.17692ZM20.2501 12.7488H12.7501C12.5512 12.7488 12.3604 12.8278 12.2198 12.9685C12.0791 13.1091 12.0001 13.2999 12.0001 13.4988V18.8894C12.0018 19.0643 12.0645 19.2332 12.1775 19.3667C12.2905 19.5002 12.4466 19.5901 12.6188 19.6207L20.1188 20.9894H20.2501C20.4263 20.9929 20.5973 20.9293 20.7282 20.8113C20.8118 20.743 20.8794 20.6573 20.9264 20.5601C20.9733 20.463 20.9985 20.3567 21.0001 20.2488V13.4988C21.0001 13.2999 20.9211 13.1091 20.7804 12.9685C20.6398 12.8278 20.449 12.7488 20.2501 12.7488Z" fill="#EAEAFF" fill-opacity="0.87"/>
</svg>
