<svg width="24" height="24" viewBox="0 0 24 24" fill="none" xmlns="http://www.w3.org/2000/svg">
<path fill-rule="evenodd" clip-rule="evenodd" d="M21.8221 15.8143C21.4315 16.3072 20.4743 16.6588 20.4743 16.6588L13.354 19.2164V17.3303L18.5941 15.4632C19.1887 15.2501 19.28 14.9489 18.7967 14.7909C18.3142 14.6323 17.4407 14.6777 16.8455 14.8917L13.354 16.1214V14.164L13.5552 14.0958C13.5552 14.0958 14.5642 13.7388 15.9829 13.5816C17.4016 13.4253 19.1387 13.6029 20.5025 14.1199C22.0393 14.6055 22.2124 15.3215 21.8221 15.8143ZM14.0318 12.6026V7.77912C14.0318 7.21264 13.9273 6.69113 13.3958 6.54349C12.9888 6.41311 12.7362 6.79107 12.7362 7.35709V19.4363L9.47857 18.4023V4C10.8637 4.25712 12.8815 4.86494 13.9664 5.23063C16.7252 6.1778 17.6605 7.35664 17.6605 10.0128C17.6605 12.6017 16.0624 13.5829 14.0318 12.6026ZM3.50121 17.1331C1.92351 16.6888 1.66094 15.763 2.38006 15.2297C3.04467 14.7373 4.1749 14.3666 4.1749 14.3666L8.84576 12.7057V14.5992L5.48458 15.8021C4.89084 16.0151 4.79953 16.3168 5.28197 16.4749C5.76487 16.6329 6.63889 16.588 7.23354 16.3745L8.84576 15.7894V17.4833C8.74355 17.5015 8.62953 17.5197 8.52413 17.5374C6.91146 17.8009 5.19384 17.691 3.50121 17.1331ZM20.7846 17.8831C20.9885 17.8831 21.1798 17.9622 21.3238 18.108C21.4678 18.2515 21.5473 18.4432 21.5473 18.6467C21.5473 18.8512 21.4678 19.042 21.3238 19.1855C21.1798 19.3304 20.9885 19.4095 20.7846 19.4095C20.5806 19.4095 20.3898 19.3304 20.2453 19.1855C20.1013 19.042 20.0223 18.8512 20.0223 18.6467C20.0223 18.2261 20.3639 17.8831 20.7846 17.8831ZM20.1504 18.6467C20.1504 18.8162 20.2163 18.9756 20.3362 19.0947C20.4557 19.2155 20.6156 19.2809 20.7846 19.2809C21.1348 19.2809 21.4187 18.9965 21.4187 18.6467C21.4187 18.4768 21.3533 18.3174 21.2329 18.1979C21.1135 18.0771 20.9536 18.0121 20.7846 18.0121C20.6156 18.0121 20.4557 18.0771 20.3362 18.1979C20.2163 18.3174 20.1504 18.4768 20.1504 18.6467ZM21.0149 18.2356C21.0985 18.2724 21.1407 18.3433 21.1407 18.4441C21.1407 18.4959 21.1298 18.5395 21.1076 18.5736C21.0917 18.5981 21.0689 18.6181 21.0435 18.6354C21.0635 18.6472 21.0812 18.6613 21.0944 18.6776C21.1126 18.7013 21.123 18.739 21.1244 18.7903L21.1285 18.8989C21.1298 18.9279 21.1316 18.9502 21.1362 18.9638C21.1407 18.9838 21.1494 18.9965 21.1603 19.0006L21.1716 19.0061V19.0183V19.037V19.0556H21.153H21.0181H21.0072L21.0017 19.0461C20.9972 19.037 20.994 19.0265 20.9908 19.0129C20.9885 19.0006 20.9863 18.9793 20.9849 18.9466L20.9781 18.8117C20.9763 18.7649 20.9604 18.7358 20.9304 18.7203C20.9118 18.7117 20.8809 18.7076 20.8391 18.7076H20.6079V19.037V19.0556H20.5888H20.4788H20.4602V19.037V18.2252V18.2066H20.4788H20.8545C20.919 18.2066 20.9731 18.2161 21.0149 18.2356ZM20.6079 18.5777H20.8432C20.8904 18.5777 20.9281 18.5691 20.9549 18.5513C20.9795 18.5336 20.9913 18.5014 20.9913 18.4546C20.9913 18.4037 20.9745 18.3705 20.939 18.3528C20.9195 18.3433 20.8922 18.3378 20.8577 18.3378H20.6079V18.5777Z" fill="#EAEAFF" fill-opacity="0.87"/>
</svg>
