<svg width="24" height="24" viewBox="0 0 24 24" fill="none" xmlns="http://www.w3.org/2000/svg">
<path fill-rule="evenodd" clip-rule="evenodd" d="M2.4116 14.9171C3.66037 19.0158 7.47144 22 11.9784 22C17.5012 22 21.9784 17.5228 21.9784 12C21.9784 6.47719 17.5012 2 11.9784 2C6.67906 2 2.3425 6.12281 2 11.3356C2.00145 11.338 2.00289 11.3405 2.00433 11.3429C2.00438 11.342 2.00441 11.3416 2.00441 11.3416L7.37785 13.5563C7.52474 13.4568 7.68164 13.373 7.84597 13.3063C8.22347 13.1509 8.62097 13.0813 9.01722 13.0994L11.4641 9.54469L11.4632 9.49531H11.46C11.46 7.39719 13.1641 5.69094 15.2585 5.69094C17.3569 5.69531 19.0569 7.39719 19.0569 9.49531C19.0569 11.5934 17.3538 13.3016 15.2585 13.3016L15.1725 13.3L11.6747 15.8016C11.6848 16.1932 11.612 16.5826 11.461 16.9441C11.1779 17.6227 10.6371 18.1613 9.9572 18.4415C9.27735 18.7217 8.51408 18.7206 7.83503 18.4384C6.97191 18.0791 6.38441 17.3316 6.19691 16.4791L2.4116 14.9171ZM8.07785 17.8528C9.16753 18.3069 10.4213 17.7922 10.8757 16.6984H10.8732C11.0925 16.1716 11.0938 15.5881 10.8763 15.0591C10.6588 14.53 10.2525 14.1163 9.72128 13.8966C9.19691 13.6788 8.63628 13.685 8.14316 13.8725L9.42441 14.4022C9.8103 14.5634 10.1164 14.8712 10.2755 15.258C10.4346 15.6448 10.4336 16.0789 10.2728 16.465C10.1934 16.6561 10.0772 16.8296 9.93068 16.9758C9.78418 17.1219 9.61033 17.2377 9.41905 17.3166C9.22778 17.3955 9.02283 17.436 8.81592 17.4356C8.609 17.4353 8.40418 17.3942 8.21316 17.3147L6.97659 16.8022C7.20234 17.2757 7.59429 17.6496 8.07785 17.8528ZM13.4728 11.2864C13.9472 11.7616 14.5905 12.0294 15.2619 12.0313C15.9334 12.0296 16.5769 11.7618 17.0514 11.2866C17.5258 10.8114 17.7926 10.1675 17.7932 9.49594C17.7924 8.82452 17.5256 8.18076 17.0512 7.70568C16.5767 7.23059 15.9333 6.9629 15.2619 6.96125C14.5906 6.96307 13.9474 7.23083 13.4731 7.7059C12.9988 8.18097 12.732 8.82463 12.7313 9.49594C12.7319 10.1674 12.9985 10.8112 13.4728 11.2864ZM13.9214 8.14626C13.5651 8.50341 13.3652 8.98741 13.3657 9.49188C13.3654 9.99629 13.5651 10.4802 13.9214 10.8372C14.2778 11.1942 14.7612 11.3952 15.2657 11.3959C15.7702 11.3954 16.254 11.1946 16.6105 10.8375C16.967 10.4805 17.1672 9.99645 17.1669 9.49188C17.1669 8.44031 16.3141 7.58719 15.2657 7.58719C14.7612 7.58802 14.2777 7.7891 13.9214 8.14626Z" fill="#EAEAFF" fill-opacity="0.87"/>
</svg>
